<svg xmlns="http://www.w3.org/2000/svg" viewBox="0 0 400 300" fill="none">
  <rect width="400" height="300" rx="4" fill="#09090b"/>
  <!-- Browser chrome -->
  <rect x="0" y="0" width="400" height="22" rx="4" fill="#18181b"/>
  <circle cx="12" cy="11" r="3" fill="#ef4444"/>
  <circle cx="22" cy="11" r="3" fill="#eab308"/>
  <circle cx="32" cy="11" r="3" fill="#22c55e"/>
  <rect x="100" y="7" width="200" height="10" rx="5" fill="#27272a"/>
  <!-- Nav with accent -->
  <rect x="0" y="22" width="400" height="36" fill="#18181b"/>
  <rect x="20" y="34" width="60" height="6" rx="2" fill="#dc2626"/>
  <rect x="250" y="34" width="40" height="6" rx="2" fill="#3f3f46"/>
  <rect x="295" y="34" width="50" height="6" rx="2" fill="#3f3f46"/>
  <rect x="355" y="32" width="25" height="20" rx="4" fill="#dc2626"/>
  <!-- Hero -->
  <rect x="0" y="58" width="400" height="85" fill="#09090b"/>
  <rect x="30" y="72" width="200" height="12" rx="2" fill="#fafafa"/>
  <rect x="30" y="88" width="160" height="6" rx="2" fill="#52525b"/>
  <rect x="30" y="100" width="100" height="8" rx="2" fill="#dc2626"/>
  <!-- Hero fitness image -->
  <rect x="250" y="68" width="120" height="65" rx="6" fill="#18181b"/>
  <circle cx="310" cy="100" r="22" fill="#27272a"/>
  <rect x="296" y="94" width="28" height="3" rx="1" fill="#dc2626"/>
  <rect x="296" y="98" width="18" height="3" rx="1" fill="#dc2626"/>
  <rect x="296" y="102" width="24" height="3" rx="1" fill="#dc2626"/>
  <!-- Class schedule -->
  <rect x="0" y="143" width="400" height="55" fill="#09090b"/>
  <rect x="150" y="148" width="80" height="6" rx="2" fill="#fafafa" opacity="0.5"/>
  <rect x="10" y="160" width="90" height="32" rx="3" fill="#18181b"/>
  <rect x="20" y="167" width="50" height="4" rx="2" fill="#dc2626" opacity="0.6"/>
  <rect x="20" y="173" width="60" height="3" rx="2" fill="#52525b"/>
  <rect x="20" y="178" width="40" height="3" rx="2" fill="#3f3f46"/>
  <rect x="105" y="160" width="90" height="32" rx="3" fill="#18181b"/>
  <rect x="115" y="167" width="50" height="4" rx="2" fill="#dc2626" opacity="0.6"/>
  <rect x="115" y="173" width="60" height="3" rx="2" fill="#52525b"/>
  <rect x="115" y="178" width="40" height="3" rx="2" fill="#3f3f46"/>
  <rect x="200" y="160" width="90" height="32" rx="3" fill="#18181b"/>
  <rect x="210" y="167" width="50" height="4" rx="2" fill="#dc2626" opacity="0.6"/>
  <rect x="210" y="173" width="60" height="3" rx="2" fill="#52525b"/>
  <rect x="210" y="178" width="40" height="3" rx="2" fill="#3f3f46"/>
  <rect x="295" y="160" width="95" height="32" rx="3" fill="#18181b"/>
  <rect x="305" y="167" width="50" height="4" rx="2" fill="#dc2626" opacity="0.6"/>
  <rect x="305" y="173" width="60" height="3" rx="2" fill="#52525b"/>
  <rect x="305" y="178" width="40" height="3" rx="2" fill="#3f3f46"/>
  <!-- Pricing -->
  <rect x="0" y="198" width="400" height="35" fill="#09090b"/>
  <rect x="30" y="203" width="340" height="25" rx="4" fill="#18181b"/>
  <rect x="45" y="210" width="50" height="6" rx="2" fill="#fafafa" opacity="0.4"/>
  <rect x="100" y="210" width="60" height="6" rx="2" fill="#dc2626"/>
  <rect x="170" y="210" width="50" height="6" rx="2" fill="#fafafa" opacity="0.4"/>
  <rect x="230" y="208" width="25" height="20" rx="4" fill="#dc2626"/>
  <!-- Footer -->
  <rect x="0" y="233" width="400" height="67" fill="#18181b"/>
  <rect x="30" y="244" width="60" height="5" rx="2" fill="#3f3f46"/>
  <rect x="30" y="252" width="80" height="3" rx="2" fill="#27272a"/>
  <rect x="280" y="244" width="25" height="5" rx="2" fill="#3f3f46"/>
  <rect x="310" y="244" width="25" height="5" rx="2" fill="#3f3f46"/>
  <rect x="340" y="244" width="25" height="5" rx="2" fill="#3f3f46"/>
  <text x="200" y="280" text-anchor="middle" fill="#52525b" font-size="7" font-family="system-ui">Fitness Studio Template</text>
</svg>
